<svg width="38" height="34" viewBox="0 0 38 34" fill="none" xmlns="http://www.w3.org/2000/svg">
<path d="M29.8952 4.2207H8.12045C7.29544 4.2207 6.50423 4.51281 5.92086 5.03277C5.3375 5.55273 5.00977 6.25794 5.00977 6.99327V26.4012C5.00977 27.1366 5.3375 27.8418 5.92086 28.3617C6.50423 28.8817 7.29544 29.1738 8.12045 29.1738H29.8952C30.7202 29.1738 31.5115 28.8817 32.0948 28.3617C32.6782 27.8418 33.0059 27.1366 33.0059 26.4012V6.99327C33.0059 6.25794 32.6782 5.55273 32.0948 5.03277C31.5115 4.51281 30.7202 4.2207 29.8952 4.2207ZM29.8952 26.4012H8.12045V6.99327H29.8952V26.4012ZM14.3418 23.6287H11.2311V16.6973H14.3418V23.6287ZM20.5632 23.6287H17.4525V9.76584H20.5632V23.6287ZM26.7846 23.6287H23.6739V13.9247H26.7846V23.6287Z" fill="white"/>
</svg>
