<svg width="29" height="29" viewBox="0 0 29 29" fill="none" xmlns="http://www.w3.org/2000/svg">
<g clip-path="url(#clip0_2638_6314)">
<path d="M3.6186 25.0997H28.4703V28.6499H0.0683594V0.248047H3.6186V25.0997ZM8.05639 23.3246C7.69648 23.3253 7.34015 23.253 7.00895 23.1122C6.67775 22.9713 6.37854 22.7648 6.12941 22.505C5.88027 22.2453 5.68639 21.9377 5.55946 21.6009C5.43254 21.2641 5.37521 20.9051 5.39094 20.5455C5.40667 20.186 5.49514 19.8333 5.651 19.5089C5.80685 19.1845 6.02686 18.895 6.29773 18.658C6.5686 18.421 6.8847 18.2414 7.22694 18.13C7.56918 18.0186 7.93046 17.9777 8.28893 18.0099L11.1504 13.2401C10.8888 12.8383 10.7405 12.3733 10.7212 11.8942C10.702 11.4151 10.8124 10.9396 11.041 10.5181C11.2695 10.0966 11.6076 9.74458 12.0196 9.49929C12.4316 9.254 12.9022 9.12452 13.3817 9.12452C13.8612 9.12452 14.3319 9.254 14.7439 9.49929C15.1559 9.74458 15.494 10.0966 15.7225 10.5181C15.9511 10.9396 16.0615 11.4151 16.0423 11.8942C16.023 12.3733 15.8747 12.8383 15.6131 13.2401L18.4746 18.0099C18.6103 17.9977 18.7469 17.9965 18.8828 18.0063L23.6082 9.73783C23.2686 9.24042 23.1077 8.64258 23.1517 8.04193C23.1958 7.44127 23.4421 6.87328 23.8506 6.43069C24.259 5.9881 24.8055 5.69706 25.4007 5.60509C25.9959 5.51312 26.6047 5.62566 27.1277 5.92432C27.6507 6.22298 28.057 6.69012 28.2803 7.24948C28.5035 7.80884 28.5306 8.42736 28.357 9.00407C28.1833 9.58077 27.8194 10.0816 27.3244 10.4247C26.8295 10.7679 26.2328 10.9331 25.6318 10.8934L20.9065 19.1619C21.178 19.5601 21.3363 20.0245 21.3646 20.5057C21.3929 20.9868 21.2901 21.4665 21.0671 21.8938C20.8441 22.3211 20.5094 22.6798 20.0985 22.9318C19.6877 23.1837 19.2162 23.3195 18.7342 23.3245C18.2523 23.3295 17.7781 23.2036 17.3621 22.9603C16.9461 22.7169 16.6039 22.3652 16.3721 21.9427C16.1403 21.5202 16.0275 21.0427 16.0457 20.5611C16.064 20.0795 16.2126 19.6119 16.4758 19.2081L13.6143 14.4383C13.4596 14.4527 13.3039 14.4527 13.1492 14.4383L10.2877 19.2081C10.5496 19.6099 10.6981 20.075 10.7175 20.5543C10.7369 21.0335 10.6264 21.5091 10.3979 21.9308C10.1693 22.3525 9.83108 22.7046 9.41893 22.9499C9.00679 23.1952 8.53603 23.3247 8.05639 23.3246Z" fill="white"/>
</g>
<defs>
<clipPath id="clip0_2638_6314">
<rect width="28.4019" height="28.4019" fill="white" transform="translate(0.0683594 0.248047)"/>
</clipPath>
</defs>
</svg>
